<?xml version="1.0" standalone="no"?>
<svg xmlns="http://www.w3.org/2000/svg" viewBox="0 0 96.265 36" width="96.265" height="36"><g fill="#4ad0ff" color="#4ad0ff" transform="translate(0 5.320754716981131) scale(0.5283019)"><svg width="53.0" height="48.0" x="0.0" y="0.0" viewBox="0 0 53 48"><path fill="currentColor" fill-rule="evenodd" d="M14.18 0L0 8.432v16.864l14.18 8.435L24 27.846v11.72L38.181 48l14.181-8.434V22.704l-14.181-8.433-9.818 5.883V8.432L14.18 0zM4.364 22.814V10.915l9.817-5.84L24 10.915v11.853l-9.819 5.885-9.817-5.839zm23.999 14.27V25.23l9.818-5.884 9.818 5.837v11.9L38.18 42.92l-9.818-5.837z"></path></svg></g><path fill="#0019ff" fill-rule="nonzero" d="M2.62 16.94L0.22 16.94Q0.02 16.94 0.02 16.78L0.02 16.78L0 0.43Q0 0.24 0.19 0.24L0.19 0.24L2.35 0.24L6.41 9.70L6.29 0.43Q6.29 0.24 6.50 0.24L6.50 0.24L8.88 0.24Q9.02 0.24 9.02 0.43L9.02 0.43L9.05 16.80Q9.05 16.94 8.93 16.94L8.93 16.94L6.82 16.94L2.66 8.11L2.83 16.75Q2.83 16.94 2.62 16.94L2.62 16.94ZM13.97 16.94L11.26 16.94Q11.14 16.94 11.14 16.82L11.14 16.82L11.16 0.34Q11.16 0.24 11.26 0.24L11.26 0.24L13.94 0.24Q14.04 0.24 14.04 0.34L14.04 0.34L14.06 16.82Q14.06 16.94 13.97 16.94L13.97 16.94ZM18.98 16.94L16.30 16.94Q16.18 16.94 16.18 16.82L16.18 16.82L16.22 0.34Q16.22 0.24 16.32 0.24L16.32 0.24L20.93 0.24Q23.14 0.24 24.42 1.58Q25.70 2.93 25.70 5.23L25.70 5.23Q25.70 6.94 25.03 8.18Q24.36 9.43 23.28 10.10Q22.20 10.78 20.93 10.78L20.93 10.78L19.10 10.78L19.10 16.82Q19.10 16.94 18.98 16.94L18.98 16.94ZM19.10 3.12L19.10 7.87L20.93 7.87Q21.70 7.87 22.26 7.14Q22.82 6.41 22.82 5.23L22.82 5.23Q22.82 4.30 22.32 3.70Q21.82 3.10 20.93 3.10L20.93 3.10L19.10 3.12ZM29.95 16.94L27.26 16.94Q27.14 16.94 27.14 16.82L27.14 16.82L27.19 0.34Q27.19 0.24 27.29 0.24L27.29 0.24L31.90 0.24Q34.10 0.24 35.39 1.58Q36.67 2.93 36.67 5.23L36.67 5.23Q36.67 6.94 36 8.18Q35.33 9.43 34.25 10.10Q33.17 10.78 31.90 10.78L31.90 10.78L30.07 10.78L30.07 16.82Q30.07 16.94 29.95 16.94L29.95 16.94ZM30.07 3.12L30.07 7.87L31.90 7.87Q32.66 7.87 33.23 7.14Q33.79 6.41 33.79 5.23L33.79 5.23Q33.79 4.30 33.29 3.70Q32.78 3.10 31.90 3.10L31.90 3.10L30.07 3.12ZM39.48 16.94L36.77 16.94Q36.67 16.94 36.67 16.85L36.67 16.85L36.67 14.14Q36.67 14.04 36.77 14.04L36.77 14.04L39.48 14.04Q39.58 14.04 39.58 14.14L39.58 14.14L39.58 16.85Q39.58 16.94 39.48 16.94L39.48 16.94ZM49.39 16.94L41.64 16.94Q41.54 16.94 41.54 16.82L41.54 16.82L41.57 0.34Q41.57 0.24 41.66 0.24L41.66 0.24L49.37 0.24Q49.46 0.24 49.46 0.36L49.46 0.36L49.46 3.05Q49.46 3.14 49.37 3.14L49.37 3.14L44.45 3.14L44.45 6.89L49.37 6.89Q49.46 6.89 49.46 6.98L49.46 6.98L49.49 9.70Q49.49 9.79 49.39 9.79L49.39 9.79L44.45 9.79L44.45 13.99L49.39 13.99Q49.49 13.99 49.49 14.11L49.49 14.11L49.49 16.85Q49.49 16.94 49.39 16.94L49.39 16.94ZM55.56 17.18L55.56 17.18Q54.26 17.18 53.20 16.52Q52.13 15.86 51.49 14.77Q50.86 13.68 50.86 12.36L50.86 12.36L50.86 11.26Q50.86 11.14 50.98 11.14L50.98 11.14L53.66 11.14Q53.76 11.14 53.76 11.26L53.76 11.26L53.76 12.36Q53.76 13.15 54.29 13.72Q54.82 14.28 55.56 14.28L55.56 14.28Q56.30 14.28 56.83 13.70Q57.36 13.13 57.36 12.36L57.36 12.36Q57.36 11.47 56.21 10.82L56.21 10.82Q55.82 10.61 55.01 10.15Q54.19 9.70 53.47 9.29L53.47 9.29Q52.15 8.52 51.52 7.36Q50.88 6.19 50.88 4.73L50.88 4.73Q50.88 3.38 51.53 2.32Q52.18 1.25 53.24 0.62Q54.31 0 55.56 0L55.56 0Q56.83 0 57.90 0.64Q58.97 1.27 59.60 2.34Q60.24 3.41 60.24 4.73L60.24 4.73L60.24 6.70Q60.24 6.79 60.14 6.79L60.14 6.79L57.46 6.79Q57.36 6.79 57.36 6.70L57.36 6.70L57.34 4.73Q57.34 3.89 56.81 3.36Q56.28 2.83 55.56 2.83L55.56 2.83Q54.82 2.83 54.29 3.40Q53.76 3.96 53.76 4.73L53.76 4.73Q53.76 5.52 54.10 6.05Q54.43 6.58 55.32 7.06L55.32 7.06Q55.44 7.13 55.79 7.31Q56.14 7.49 56.54 7.72Q56.95 7.94 57.28 8.11Q57.60 8.28 57.67 8.33L57.67 8.33Q58.87 9 59.57 9.97Q60.26 10.94 60.26 12.36L60.26 12.36Q60.26 13.73 59.63 14.82Q58.99 15.91 57.92 16.55Q56.86 17.18 55.56 17.18Z" transform="translate(36, 9.528)"></path></svg>